PathFileType	4	(X/Y/Z)	C:/Users/opensim2020/Desktop/walking_exp_matlab/subject03_walking11_straight_03.trc																																																																																																																																								
DataRate	CameraRate	NumFrames	NumMarkers	Units	OrigDataRate	OrigDataStartFrame	OrigNumFrames																																																																																																																																				
100	100	4	46	mm	100	2835	380																																																																																																																																				
Frame#	Time	LFHD			RFHD			LBHD			RBHD			C7			T10			CLAV			STRN			RBAK			LSHO			LUPA			LELB			LFRM			LWRA			LWRB			LFIN			RSHO			RUPA			RELB			RFRM			RWRA			RWRB			RFIN			LASI			RASI			LPSI			RPSI			LTHI			LKNE			LTIB			LANK			LHEE			LTOE			RTHI			RKNE			RTIB			RANK			RHEE			RTOE			*39			*40			*41			*42			*43			*44			*45		
		X1	Y1	Z1	X2	Y2	Z2	X3	Y3	Z3	X4	Y4	Z4	X5	Y5	Z5	X6	Y6	Z6	X7	Y7	Z7	X8	Y8	Z8	X9	Y9	Z9	X10	Y10	Z10	X11	Y11	Z11	X12	Y12	Z12	X13	Y13	Z13	X14	Y14	Z14	X15	Y15	Z15	X16	Y16	Z16	X17	Y17	Z17	X18	Y18	Z18	X19	Y19	Z19	X20	Y20	Z20	X21	Y21	Z21	X22	Y22	Z22	X23	Y23	Z23	X24	Y24	Z24	X25	Y25	Z25	X26	Y26	Z26	X27	Y27	Z27	X28	Y28	Z28	X29	Y29	Z29	X30	Y30	Z30	X31	Y31	Z31	X32	Y32	Z32	X33	Y33	Z33	X34	Y34	Z34	X35	Y35	Z35	X36	Y36	Z36	X37	Y37	Z37	X38	Y38	Z38	X39	Y39	Z39	X40	Y40	Z40	X41	Y41	Z41	X42	Y42	Z42	X43	Y43	Z43	X44	Y44	Z44	X45	Y45	Z45	X46	Y46	Z46
																																																																																																																																											
96	0.95	-477.31418	1613.8739	1385.01758	-474.5029	1618.5946	1518.68225	-603.53131	1566.19128	1393.50024	-596.08105	1570.80554	1524.24866	-629.60486	1413.04785	1458.65759	-678.84088	1102.80469	1454.49243	-512.38416	1330.06604	1445.8634	-478.75125	1162.82483	1438.24512	-680.34912	1242.18689	1559.83521	-573.43921	1371.53003	1295.12317	-621.94464	1177.61707	1229.53625	-635.3252	1054.51099	1218.46448	-617.42596	925.23987	1219.67725	-599.45062	808.12323	1252.07715	-630.72424	812.35767	1205.66333	-617.48737	728.99823	1217.27222	-538.02435	1355.30261	1608.59778	-501.03918	1140.20789	1684.75525	-459.67206	1035.28162	1695.11975	-407.14932	908.89697	1689.10889	-359.27768	826.10077	1644.03162	-379.31772	812.71173	1691.98547	-336.66354	754.20721	1676.90784	-518.58606	931.00714	1334.4812	-518.21436	932.8681	1571.65112	-681.02081	954.23193	1382.10828	-678.25464	970.2738	1531.48376	-515.68762	632.05487	1282.62402	-444.0145	471.43399	1327.36938	-423.14902	284.09998	1320.79834	-353.0928	82.94362	1347.50574	-378.6955	40.38297	1388.24402	-197.11911	81.47427	1363.44055	-614.61804	645.82343	1609.26318	-635.77753	466.9765	1574.9928	-724.6629	294.94711	1577.19995	-801.1803	91.09226	1525.69873	-850.19275	67.97087	1475.24707	-665.73468	35.91225	1507.71875	NaN	NaN	NaN	NaN	NaN	NaN	NaN	NaN	NaN	NaN	NaN	NaN	NaN	NaN	NaN	NaN	NaN	NaN	NaN	NaN	NaN
97	0.96	-470.1875	1613.3479	1384.15491	-467.44693	1618.12512	1517.91455	-596.2442	1565.42859	1392.53882	-589.00104	1570.02783	1523.35217	-622.13647	1412.26965	1457.44006	-671.23529	1102.09619	1453.16687	-504.75162	1329.43396	1445.22327	-471.22516	1162.05103	1437.78125	-673.07928	1241.48413	1558.70996	-565.52222	1370.69849	1294.23547	-613.64258	1176.5752	1228.8031	-626.85168	1053.39954	1217.81958	-609.16376	924.20593	1219.21338	-591.15045	806.94037	1251.65649	-622.30847	811.25244	1205.26501	-609.47021	727.82141	1217.15503	-530.81042	1354.67725	1607.73987	-493.76962	1139.505	1683.65808	-452.32217	1034.54248	1693.71301	-399.54733	908.30804	1687.3302	-351.43246	825.98169	1641.99304	-371.50644	812.14447	1689.85376	-328.70901	753.74847	1674.51318	-510.61407	930.07025	1333.94849	-511.24527	932.15454	1571.34692	-673.36487	953.58386	1380.83582	-671.14612	969.39661	1530.07153	-507.75955	631.04517	1282.93555	-436.68265	470.44452	1327.84888	-415.21292	283.41681	1320.90857	-344.65729	82.38138	1347.73035	-369.90192	39.5323	1388.56335	-188.74115	81.98555	1362.75122	-608.56342	645.4613	1608.98035	-630.34521	466.62729	1574.91333	-721.29913	295.47757	1577.21716	-800.34564	92.47298	1525.90552	-849.63855	69.97343	1475.41956	-665.67413	35.72113	1507.75183	NaN	NaN	NaN	NaN	NaN	NaN	NaN	NaN	NaN	NaN	NaN	NaN	NaN	NaN	NaN	NaN	NaN	NaN	NaN	NaN	NaN
98	0.97	-463.04776	1612.901	1383.24097	-460.55267	1617.65845	1516.94592	-588.98938	1564.58069	1391.49683	-581.86285	1569.2821	1522.34961	-614.35712	1411.5769	1456.43677	-663.64911	1101.45911	1451.85559	-497.14932	1328.73474	1444.41748	-463.51578	1161.42883	1437.29187	-665.578	1240.83264	1557.37085	-557.4848	1369.82068	1293.24329	-605.16559	1175.65222	1228.03479	-618.81793	1052.27637	1217.07092	-600.49255	923.10406	1218.72107	-582.73889	805.86707	1251.31445	-613.70947	810.15375	1204.79016	-601.1123	726.64771	1217.05408	-523.61993	1354.15344	1606.8512	-486.535	1138.87109	1682.42883	-445.07867	1033.90637	1692.33643	-392.14523	907.70093	1685.55005	-343.94373	825.4339	1639.89917	-363.96838	811.51141	1687.74377	-321.13455	753.17358	1672.12195	-502.23041	929.33325	1333.55005	-504.30887	931.57111	1570.92871	-665.0036	952.76038	1379.39355	-663.90369	968.6311	1528.7196	-499.56766	630.17395	1283.19263	-429.04828	469.59518	1328.03723	-407.85861	282.55017	1320.96826	-338.29694	81.21033	1348.26685	-363.33295	38.27038	1389.3114	-182.38925	81.00086	1362.50854	-602.55817	645.33582	1608.90271	-624.78497	466.32727	1574.84875	-717.83624	296.10626	1577.30859	-799.49109	94.03656	1526.10913	-849.01099	72.08997	1475.58569	-665.52698	35.6546	1507.84998	NaN	NaN	NaN	NaN	NaN	NaN	NaN	NaN	NaN	NaN	NaN	NaN	NaN	NaN	NaN	NaN	NaN	NaN	NaN	NaN	NaN
99	0.98	-455.78659	1612.50452	1382.29041	-453.51218	1617.31543	1516.00842	-581.64288	1563.85022	1390.45081	-574.72485	1568.56396	1521.25488	-606.78943	1410.93689	1455.13623	-655.78363	1100.79736	1450.4624	-489.49069	1328.2301	1443.53857	-455.61594	1160.8501	1436.77588	-658.11938	1240.26135	1556.099	-549.38605	1369.05603	1292.17847	-596.46466	1174.59094	1227.12793	-609.65533	1051.48389	1216.36084	-591.53949	922.12653	1218.1145	-575.81769	804.26984	1252.51465	-604.83325	809.15192	1204.20947	-592.47607	725.60925	1216.75903	-516.24713	1353.63464	1605.86829	-479.19739	1138.28284	1681.12488	-437.78461	1033.20654	1690.83606	-384.84616	907.0517	1683.73743	-336.62625	824.95123	1637.84021	-356.61081	810.86713	1685.69629	-313.83868	752.55194	1669.81555	-493.71503	928.53357	1333.08948	-497.20605	931.04767	1570.5376	-656.96454	952.14618	1377.96655	-656.45453	967.92419	1527.25452	-491.13589	629.60565	1283.33557	-421.13873	468.84012	1328.02136	-401.32175	281.4436	1321.04773	-333.62778	79.53767	1349.13538	-359.39883	36.93513	1390.43909	-178.24599	78.64064	1363.29065	-596.14252	645.04724	1608.52991	-619.02167	466.03207	1574.84668	-714.20825	296.80215	1577.36743	-798.49176	95.68804	1526.47546	-848.30322	74.47873	1475.94934	-665.30524	35.64535	1507.99231	NaN	NaN	NaN	NaN	NaN	NaN	NaN	NaN	NaN	NaN	NaN	NaN	NaN	NaN	NaN	NaN	NaN	NaN	NaN	NaN	NaN
